# xmcd CD database file
#
# Track frame offsets:
#	150
#	3012
#	24610
#	47075
#	65925
#	86025
#
# Disc length: 1505 seconds
#
# Revision: 0
# Processed by: cddbd v1.5.1PL0 Copyright (c) Steve Scherf et al.
# Submitted via: CDex 1.51
#
DISCID=4705df06
DTITLE=星野真里 - WHITE ALBUM
DYEAR=1900
DGENRE=JPop
TTITLE0=OVERTURE 〜ガラスの翼
TTITLE1=WHITE
TTITLE2=きらきら
TTITLE3=永遠の海 (Acoustic version)
TTITLE4=冬の色
TTITLE5=ガラスの翼 (Seasons Greetings version)
EXTD=
EXTT0=
EXTT1=
EXTT2=
EXTT3=
EXTT4=
EXTT5=
PLAYORDER=
